<?xml version="1.0" encoding="UTF-8" standalone="no"?>
<!-- Created with Inkscape (http://www.inkscape.org/) -->

<svg
   version="1.1"
   id="svg1"
   width="1024"
   height="1024"
   viewBox="0 0 1024 1024"
   sodipodi:docname="icon.svg"
   inkscape:version="1.4.2 (ebf0e940d0, 2025-05-08)"
   inkscape:export-filename="icon.png"
   inkscape:export-xdpi="96"
   inkscape:export-ydpi="96"
   xmlns:inkscape="http://www.inkscape.org/namespaces/inkscape"
   xmlns:sodipodi="http://sodipodi.sourceforge.net/DTD/sodipodi-0.dtd"
   xmlns="http://www.w3.org/2000/svg"
   xmlns:svg="http://www.w3.org/2000/svg">
  <defs
     id="defs1" />
  <sodipodi:namedview
     id="namedview1"
     pagecolor="#ffffff"
     bordercolor="#000000"
     borderopacity="0.25"
     inkscape:showpageshadow="2"
     inkscape:pageopacity="0.0"
     inkscape:pagecheckerboard="0"
     inkscape:deskcolor="#d1d1d1"
     inkscape:zoom="1.1074219"
     inkscape:cx="512"
     inkscape:cy="512"
     inkscape:window-width="2560"
     inkscape:window-height="1366"
     inkscape:window-x="0"
     inkscape:window-y="0"
     inkscape:window-maximized="1"
     inkscape:current-layer="g1" />
  <g
     inkscape:groupmode="layer"
     inkscape:label="Image"
     id="g1">
    <path
       d="m 697.40514,659.52929 c -74.6982,72.87813 -29.02812,25.14034 -72.00489,59.58667 l 68.0191,68.02555 68.02122,68.02769 44.83429,14.62105 c 24.65822,8.04126 48.30501,15.77131 52.54963,17.17919 7.9778,2.64612 12.07252,3.34372 11.20804,1.90784 -0.2738,-0.45478 -8.44214,-20.67188 -18.15249,-44.92688 -9.71036,-24.255 -18.69737,-46.41064 -19.9699,-49.23351 -1.99306,-4.42121 -130.70793,-133.83071 -134.45331,-135.17899 -0.0146,-0.005 -0.0312,-0.008 -0.0518,-0.008 z"
       style="display:inline;fill:#b4c2c0;stroke-width:1.1025"
       id="path337"
       sodipodi:nodetypes="ccccsssssccc" />
    <path
       d="m 752.8158,296.61008 6.75462,12.22387 c 3.93651,7.12392 7.42987,8.10907 6.75117,9.3085 -1.3045,2.30536 -62.65113,65.25839 -63.90644,65.57989 -0.5775,0.1479 -4.97168,-2.83302 -9.76582,-6.62402 l -8.71788,-6.89269 30.24288,-31.12471 c 16.63289,-17.11907 27.41268,-37.17804 29.47465,-39.05629 z"
       style="display:inline;fill:#b4c2c0;stroke-width:1.05"
       id="path334"
       sodipodi:nodetypes="csssccccc" />
    <path
       d="m 271.05103,298.86046 c -2.68312,4.1192 -19.1893,14.31204 -15.22613,19.27868 3.48169,4.12988 64.89348,69.08899 66.37824,68.88903 1.0308,-0.13881 19.11756,-14.78808 19.21624,-15.5642 0.13336,-1.04826 -27.61909,-29.23125 -70.36835,-72.60351 z"
       style="display:inline;fill:#b4c2c0;stroke-width:1.1025"
       id="path333"
       sodipodi:nodetypes="csssc" />
    <path
       d="m 305.46289,270.64885 c -0.003,0.0244 -0.0462,0.0105 -0.0635,0.0205 -2.46625,1.4538 -21.86735,12.19239 -16.44936,13.69515 0.46163,0.12804 63.53777,81.71253 66.73457,79.37588 9.34962,-6.83403 29.29841,-21.77997 29.29841,-22.51797 0,-1.07314 -78.24267,-80.7928 -78.61709,-77.79752 z"
       style="display:inline;fill:#b4c2c0;stroke-width:1.05"
       id="path332"
       sodipodi:nodetypes="scsssss" />
    <path
       d="m 719.82048,266.83418 -18.0922,18.45612 c -51.39319,52.4301 -56.33794,57.73514 -55.03671,59.05265 0.70497,0.71379 4.61281,3.86862 8.68434,7.01121 4.07153,3.14258 8.20435,5.62321 9.18391,5.5125 1.63483,-0.18477 71.00796,-70.64957 72.92865,-74.07637 0.59153,-1.05536 -1.90875,-3.65066 -8.41302,-8.72956 z"
       style="display:inline;fill:#b4c2c0;stroke-width:1.1025"
       id="path331"
       sodipodi:nodetypes="ccsssscc" />
    <path
       d="m 620.52536,729.18778 -18.45815,10.54577 c -29.16269,25.03442 -77.83323,67.32599 -85.58207,70.81487 -9.18935,4.13745 -7.44268,0.53725 -77.72356,-56.08551 -12.60879,-10.15843 -33.13988,-14.85206 -34.58887,-15.94975 l -2.63526,-1.99541 -28.74169,28.72734 c -27.8124,27.7986 -28.68241,28.79308 -26.93907,30.76993 23.14618,26.24621 92.00682,76.6441 147.81006,108.1787 8.63033,4.87704 16.3657,8.90616 17.1917,8.95372 3.66864,0.21104 64.84213,-36.82774 88.79883,-53.76533 29.18369,-20.63313 62.29065,-47.64733 76.09423,-62.08945 l 3.64629,-3.81445 -28.98574,-28.9837 z"
       style="display:inline;fill:#e1b463;stroke-width:1.05"
       id="path312"
       sodipodi:nodetypes="ccssccssssscccc" />
    <path
       d="m 239.40151,326.17943 c -0.38794,0 -8.66387,8.83027 -18.3914,19.62393 l -17.68594,19.62598 0.6747,33.13652 c 2.49119,122.41623 20.37079,209.69005 58.57647,285.90557 3.44698,6.87629 6.66872,12.35162 7.15928,12.16728 0.49057,-0.18434 8.06517,-7.78849 16.83076,-16.89844 l 15.93662,-16.56211 4.98239,-5.48789 c -8.42899,-9.34137 -17.73004,1.14966 -17.73004,-129.45557 0,-131.1591 10.16098,-116.55061 18.74174,-124.97198 6.02514,-5.91324 -3.88278,-7.50598 -21.10424,-25.94091 -8.22938,-8.80923 -22.23409,-23.91978 -31.12267,-33.57949 -8.88855,-9.65972 -16.47972,-17.56289 -16.86767,-17.56289 z"
       style="display:inline;fill:#e1b463;stroke-width:1.05"
       id="path311"
       sodipodi:nodetypes="scccsscccsssss" />
    <path
       d="m 783.63374,325.12612 c -0.71107,0 -6.42482,6.12777 -44.54502,47.76065 -6.88168,7.5158 -13.92182,15.17772 -15.64541,17.02763 l -10.35963,-2.05471 3.19111,18.11076 c 3.67659,3.97116 2.70499,6.12079 9.71856,9.59495 6.39106,3.16591 -12.59159,214.39196 -8.1653,225.85503 0.59176,1.53252 0.81589,8.08418 -1.23679,11.68592 l -5.18027,9.08963 25.53876,18.29156 c 9.07949,9.56393 17.03564,17.36767 17.6798,17.34142 2.02275,-0.0823 19.60048,-38.75392 27.35126,-60.17198 24.57862,-67.91923 36.53936,-141.99816 38.09121,-235.94238 l 0.59883,-36.28653 -5.06338,-5.71347 C 799.83263,341.91585 784.3113,325.12612 783.63374,325.12612 Z"
       style="display:inline;fill:#e1b463;stroke-width:1.05"
       id="path310"
       sodipodi:nodetypes="sscccsssccsscccs" />
    <path
       d="m 512.98651,154.84609 c -0.44021,0 -6.39262,3.70341 -13.22959,8.22979 -55.74331,36.90461 -113.4013,65.16501 -172.03183,84.31992 -6.93,2.26408 -13.28451,4.35855 -14.12168,4.65527 -1.0092,0.3577 11.37225,13.43845 36.74385,38.81719 21.04671,21.05263 38.5129,38.27783 38.81309,38.27783 0.30018,0 24.16669,-9.11138 46.41515,-26.86951 72.5122,-57.8773 69.51626,-54.70925 76.63525,-53.74229 12.27664,1.66752 36.03976,24.22309 98.38017,74.89191 l 23.55985,5.88396 38.14864,-38.13839 c 20.98244,-20.97653 38.15068,-38.40042 38.15068,-38.71875 0,-0.31833 -6.78027,-2.75439 -15.06709,-5.41406 -52.21978,-16.76007 -111.9697,-46.2364 -165.95127,-81.86719 -8.60407,-5.67915 -16.00502,-10.32568 -16.44522,-10.32568 z"
       style="display:inline;fill:#e1b463;stroke-width:1.05"
       id="path309"
       sodipodi:nodetypes="sssssssscccssss" />
    <path
       d="m 511.9549,357.09805 -19.02027,17.77135 c -32.45706,30.33113 -86.11671,80.11326 -89.34556,82.88777 l -3.07495,2.64211 0.0581,65.87869 0.0603,65.87867 8.52928,8.08142 c 54.13356,51.30341 79.715,75.43029 89.69011,84.58889 14.23456,13.06936 12.47665,12.84282 22.87471,2.93066 4.62978,-4.41342 18.09178,-17.18136 29.91609,-28.37431 11.82431,-11.19294 33.03366,-31.45737 47.13187,-45.03238 l 25.63316,-24.68136 v -65.39849 -65.3985 l -27.1749,-24.59306 c -14.94654,-13.52707 -33.75213,-30.54873 -41.78948,-37.82523 -8.03737,-7.2765 -21.10966,-19.10923 -29.05044,-26.29419 z"
       style="display:inline;fill:#855cc3;stroke-width:1.1025"
       id="path268" />
    <path
       d="m 629.7832,605.62695 c -1.46617,-0.10877 -51.7968,47.18678 -93.51172,87.87305 l -11.27734,11 0.004,38.75 c 0.002,28.79091 0.30171,38.75 1.16601,38.75 2.52308,0 170.07307,-136.789 169.53321,-138.4082 -0.46939,-1.40817 -63.64654,-37.79663 -65.91407,-37.96485 z"
       style="display:inline;fill:#5c3c9f"
       id="path235" />
    <path
       d="m 395.20703,605 c -0.48487,0 -9.84288,4.98656 -20.79492,11.08008 -10.95204,6.09352 -26.0962,14.45516 -33.6543,18.58203 -7.5581,4.12688 -13.95658,7.84925 -14.21875,8.27344 -0.26216,0.42419 6.14693,6.19407 14.24219,12.82031 8.09526,6.62624 23.04375,18.8837 33.21875,27.24023 43.60422,35.81131 57.96044,47.47593 83,67.4336 14.575,11.61693 29.425,23.45542 33,26.30859 9.74944,7.78095 9.00542,10.64388 8.95312,-34.48828 L 498.9082,702.5 472.79687,678 C 458.43538,664.525 435.3005,642.5875 421.38672,629.25 407.47295,615.9125 395.6919,605 395.20703,605 Z"
       style="display:inline;fill:#5c3c9f"
       id="path234" />
    <path
       d="m 710.23875,427.74495 c 0.0361,0.002 0.065,0.007 0.0882,0.0164 2.19221,0.84123 9.9711,204.8281 -0.75879,196.58173 -0.69268,-0.53235 -11.26125,-5.00302 -23.1,-11.36953 -11.83875,-6.3665 -27.54938,-14.86821 -34.9125,-18.89385 l -13.38751,-7.3192 v -60.7626 -60.76055 l 20.2125,-10.76455 c 11.11687,-5.92097 27.04939,-14.47088 35.40468,-18.99843 8.09419,-4.38608 15.3331,-7.78085 16.45342,-7.7294 z"
       style="display:inline;fill:#5c3c9f;stroke-width:1.05"
       id="path231"
       sodipodi:nodetypes="ccsssccccsc" />
    <path
       d="M 315.25,432.04492 C 314.25855,432.0099 314,451.44312 314,526 c 0,75.79828 0.24915,94 1.2832,94 0.70529,0 16.34279,-8.04155 34.75,-17.86914 L 383.5,584.26367 V 526.01562 467.76953 L 350,449.92773 c -18.425,-9.81214 -34.0625,-17.85851 -34.75,-17.88281 z"
       style="display:inline;fill:#5c3c9f"
       id="path230" />
    <path
       d="m 521.77163,271.23575 c -1.38466,0.85576 -1.43756,75.54803 -0.0553,78.13065 1.23691,2.31119 33.07439,32.11519 76.09424,71.23389 17.94135,16.31438 32.821,29.6625 33.06475,29.6625 0.37908,0 29.21943,-14.81145 61.24863,-31.45488 10.99324,-5.71245 10.8407,-4.86633 2.10616,-11.75098 -3.89813,-3.07255 -25.76896,-20.47741 -48.60147,-38.67773 -22.83252,-18.20031 -48.11127,-38.31881 -56.175,-44.70908 -8.06374,-6.39028 -26.35372,-20.94969 -40.64443,-32.35312 -14.29071,-11.40342 -26.45758,-20.43966 -27.0375,-20.08125 z"
       style="display:inline;fill:#5c3c9f;stroke-width:1.05"
       id="path224" />
    <path
       d="m 499.92187,274 c -1.2086,0 -29.55786,22.28745 -132.83398,104.43359 -32.27397,25.67082 -39.89632,32.17806 -38.86719,33.17578 1.24717,1.20911 26.07824,14.39511 52.27735,27.75977 7.14934,3.64702 13.67434,6.62609 14.5,6.62109 0.82566,-0.005 10.72695,-8.61909 22.00195,-19.14257 11.275,-10.52348 29.04607,-27.05611 39.49219,-36.74024 10.44611,-9.68412 24.73361,-23.18496 31.75,-30.00195 L 501,347.71094 V 310.85547 C 501,285.16246 500.67376,274 499.92187,274 Z"
       style="display:inline;fill:#5c3c9f"
       id="path223" />
    <path
       d="m 699.34961,181.15625 c -1.93388,0.13103 -17.53121,14.1589 -18.11914,16.34375 -0.148,0.55 19.84267,20.8 44.42383,45 24.58116,24.2 58.41854,58.2875 75.19336,75.75 C 817.62247,335.7125 831.79704,350 832.3457,350 833.61756,350 851,332.41178 851,331.125 851,329.68162 701.2885,181.55399 699.43164,181.16016 c -0.0237,-0.005 -0.0513,-0.006 -0.082,-0.004 z"
       style="display:inline;fill:#6d5e51"
       id="path177" />
    <path
       d="M 324.43945,181 C 322.61933,181 173,328.62409 173,330.41992 c 0,0.67625 4.12798,5.36942 9.17383,10.42969 5.04585,5.06028 9.48901,9.07717 9.87304,8.92578 C 192.43091,349.62401 205.13157,336.675 220.26953,321 249.16531,291.0791 293.93705,246.44593 324.75,216.84375 334.7875,207.20067 343,198.83956 343,198.26367 343,197.09606 325.69473,181 324.43945,181 Z"
       style="display:inline;fill:#6d5e51"
       id="path176" />
    <path
       d="m 857.89453,139.00391 c -1.2549,0.003 -80.93437,80.06495 -81.72461,82.11718 -0.18114,0.4704 6.75519,8.06061 15.41211,16.86719 8.65692,8.80659 15.82513,16.01172 15.92969,16.01172 0.23908,0 16.2251,-16.4794 32.49805,-33.5 6.83592,-7.15 20.46545,-21.20383 30.2871,-31.23047 9.82167,-10.02664 17.70922,-18.85079 17.5293,-19.60937 -0.5064,-2.13509 -28.35682,-30.65925 -29.93164,-30.65625 z"
       style="display:inline;fill:#6d5e51"
       id="path173" />
    <path
       d="M 166.58398,139 C 165.26571,139 135,169.11781 135,170.42969 c 0,0.52479 12.27046,13.35486 27.26758,28.51172 14.99713,15.15685 33.26029,33.76235 40.58594,41.3457 l 13.32031,13.78906 4.16211,-3.71875 c 4.24336,-3.78944 22.22506,-21.82244 26.54883,-26.625 l 2.38476,-2.64844 -40.8125,-41.04296 C 186.00949,157.46804 167.16678,139 166.58398,139 Z"
       style="display:inline;fill:#6d5e51"
       id="path172" />
    <path
       d="m 127.18555,109.05273 c -17.92554,-0.68509 -31.817459,20.52895 -14.60938,38.92579 5.777,6.17607 5.55367,6.18078 11.7461,-0.22852 2.78979,-2.8875 9.56267,-9.87432 15.05273,-15.52539 l 9.98242,-10.27344 -3.9043,-3.99804 c -5.86922,-6.01064 -12.29239,-8.67203 -18.26757,-8.9004 z"
       style="display:inline;fill:#6d5e51"
       id="path170" />
    <path
       d="m 898.42773,108.81836 c -5.82808,-0.0972 -12.3024,2.05199 -18.57617,7.30469 -6.28957,5.26593 -6.76112,4.2053 9.48242,21.31054 15.65617,16.4867 15.09924,16.22896 21.27539,9.81641 16.97591,-17.62568 5.30263,-38.14011 -12.18164,-38.43164 z"
       style="display:inline;fill:#6d5e51"
       id="path169" />
    <path
       style="display:inline;fill:#161c2d"
       d="M 494.83029,925.14944 C 442.33342,898.17078 391.98138,863.07525 347.23275,822.27347 341.03576,816.62306 335.69722,812 335.36933,812 c -0.3279,0 -12.55629,11.75063 -27.17421,26.11251 -14.61791,14.36188 -28.20445,27.18882 -30.19229,28.50431 -6.65275,4.40259 -116.20009,40.24534 -125.56664,41.0841 -10.46526,0.93716 -16.96728,-4.58279 -16.13851,-13.70092 0.50531,-5.55941 37.9306,-102.54571 44.95528,-116.5 1.23536,-2.454 14.91203,-16.75452 35.38589,-37 18.35475,-18.15 33.36977,-33.56459 33.36671,-34.25464 -0.003,-0.69005 -2.41169,-5.86505 -5.35251,-11.5 -41.06827,-78.69152 -61.20196,-171.0342 -63.3364,-290.4909 l -0.62977,-35.24554 -14.55967,-14.55968 C 140.87938,329.20142 140.4015,332.20722 175.25,297.0681 188.8625,283.34208 200,271.46399 200,270.67234 200,269.28446 171.95097,240.21868 115.84565,183.4675 92.974675,160.33325 88.690133,155.52436 86.134323,150.1201 67.102279,109.87686 113.52281,67.824039 150,92.263549 c 2.475,1.658235 28.61415,27.139811 58.08699,56.625711 29.47285,29.48591 54.69354,54.61543 56.04597,55.84338 l 2.45897,2.23263 25.44914,-24.98598 c 34.7101,-34.07838 31.04805,-33.54001 57.25225,-8.4168 23.26563,22.30587 25.14939,25.97572 17.17766,33.46477 C 345.9817,226.27595 433.18494,183.01369 491,145.24738 c 22.12566,-14.45307 19.42041,-14.51239 43,0.94295 39.77299,26.06936 90.89211,53.49078 117.19525,62.8661 8.18789,2.91844 8.93255,2.36169 4.92785,-3.6843 -5.57959,-8.42365 -5.58066,-8.4218 17.62623,-30.69863 27.66738,-26.55857 24.17887,-26.95166 57.88966,6.52314 13.86005,13.76301 25.74284,24.84275 26.40621,24.62163 0.66336,-0.22112 26.91207,-26.07515 58.33046,-57.45339 53.09197,-53.02412 57.5695,-57.244624 63.43072,-59.789489 36.7285,-15.947038 76.24475,25.140919 58.68909,61.023389 -1.97016,4.02687 -14.77407,17.507 -59.25435,62.38378 -31.20762,31.4858 -56.90707,57.69315 -57.10991,58.23854 -0.20283,0.5454 11.33141,12.75627 25.63165,27.13527 35.14475,35.3383 34.57888,32.34838 10.72043,56.64363 l -15.22133,15.5 -0.59794,33.5 C 840.48155,525.27455 822.27531,611.17467 781.38576,692.12114 777.32359,700.16276 774,707.19055 774,707.73845 c 0,0.54789 14.76171,15.56838 32.80381,33.37886 18.04209,17.81048 33.79624,33.80798 35.00921,35.55 4.50654,6.4721 44.78679,109.13383 45.84294,116.83929 1.68849,12.31891 -8.33777,17.29133 -25.04815,12.42237 -24.01537,-6.99743 -107.66525,-34.48277 -112.8265,-37.07207 -2.04528,-1.02608 -16.32708,-14.28897 -31.73733,-29.4731 -16.1741,-15.93676 -28.55242,-27.38366 -29.28131,-27.078 -0.69447,0.29122 -6.43767,5.12161 -12.76267,10.73421 -41.26876,36.62052 -76.59915,61.90676 -126.06201,90.22361 -37.84957,21.66838 -36.59758,21.39835 -55.1077,11.88582 z m 35.9105,-25.07803 C 584.82236,869.01876 631.65416,835.2789 664.71923,803.54695 L 673.5,795.1202 645.5067,767.0601 C 630.11038,751.62705 616.93333,739 616.22437,739 c -1.14198,0 -78.21897,64.27142 -97.40921,75.97133 -5.97676,3.64392 -10.52505,2.80251 -19.46007,-3.60002 -11.96471,-8.5735 -51.61782,-39.42527 -72.35509,-56.29526 -10.175,-8.27748 -19.17807,-15.05582 -20.00682,-15.063 -3.07032,-0.0266 -56.59991,54.79821 -55.39758,56.738 5.15023,8.3091 58.72422,51.84942 88.42982,71.86811 19.02074,12.81813 68.35511,42.21287 71.07832,42.35036 0.33205,0.0168 9.16872,-4.88738 19.63705,-10.89811 z M 215.928,865.4197 263.5,849.8394 325.25,788.18064 c 33.9625,-33.91232 61.72875,-62.33868 61.70279,-63.1697 -0.0487,-1.5588 -20.79933,-18.51094 -22.6587,-18.51094 -0.57385,0 -28.80318,27.225 -62.73185,60.5 -33.92867,33.275 -62.83526,61.10317 -64.23688,61.84037 -7.10075,3.73474 -15.28162,-3.50447 -13.66256,-12.08994 0.49698,-2.63538 11.98751,-14.6485 60.72508,-63.48685 33.06167,-33.13003 60.19608,-61.03003 60.29869,-62 0.20393,-1.92764 -21.95072,-22.69566 -23.58062,-22.10473 -4.48365,1.62556 -120.32943,119.09531 -122.68727,124.40714 -6.70155,15.09752 -34.33745,85.75643 -33.84955,86.54586 1.03357,1.67236 3.86936,0.86113 51.35887,-14.69215 z M 860,879.39899 C 860,877.8717 830.90221,804.49845 825.73656,793 823.12828,787.1941 705.94299,669.88716 702.07186,669.20692 700.17674,668.87391 678,688.35036 678,690.34774 c 0,0.69942 27.25522,28.44336 60.56716,61.6532 33.31194,33.20985 60.98694,61.1659 61.5,62.12456 2.92455,5.46456 0.17446,12.97959 -5.42622,14.82799 -6.52145,2.15227 -0.90556,7.16867 -89.43966,-79.89201 -24.3643,-23.95881 -44.93464,-43.50184 -45.71188,-43.42894 -1.83079,0.1717 -22.56241,16.39414 -23.25388,18.1961 -0.33055,0.86138 22.55697,24.46468 61.36867,63.28792 L 759.5,849.03077 788,858.4226 c 15.675,5.1655 37.275,12.16271 48,15.54935 10.725,3.38665 19.95,6.31788 20.5,6.51385 2.26463,0.80691 3.5,0.42331 3.5,-1.08681 z M 498.95397,742.25 498.90794,702.5 472.79613,678 C 458.43463,664.525 435.30032,642.5875 421.38654,629.25 407.47277,615.9125 395.69206,605 395.20719,605 c -0.48487,0 -9.84235,4.98561 -20.79439,11.07913 -10.95204,6.09352 -26.0967,14.45567 -33.6548,18.58254 -7.5581,4.12688 -13.95649,7.85048 -14.21866,8.27467 -0.26216,0.42419 6.14674,6.19273 14.242,12.81897 8.09526,6.62624 23.04366,18.88488 33.21866,27.24141 43.60422,35.81131 57.96044,47.47488 83,67.43255 14.575,11.61693 29.425,23.45612 33,26.30929 9.74944,7.78095 9.00623,10.6436 8.95397,-34.48856 z m 53.4593,19.56179 C 614.5631,711.79753 696.0278,644.5834 695.69742,643.59226 c -0.46939,-1.40817 -63.6467,-37.79667 -65.91423,-37.96489 -1.46617,-0.10877 -51.79591,47.18636 -93.51083,87.87263 l -11.2781,11 0.003,38.75 c 0.002,28.79091 0.30184,38.75 1.16614,38.75 0.6398,0 12.4523,-9.0847 26.25,-20.18821 z M 763.64029,677.25 c 38.50458,-81.18005 58.9012,-187.45219 56.19476,-292.79045 L 819.5,371.41909 l -14,-15.4841 c -7.7,-8.51625 -15.68633,-17.38555 -17.7474,-19.70954 -2.06107,-2.324 -4.15716,-4.22545 -4.65799,-4.22545 -1.29831,0 -60.52329,64.80245 -60.94068,66.67972 -0.19034,0.85608 1.65622,3.64086 4.10346,6.18839 2.44724,2.54754 5.19048,5.74452 6.09607,7.1044 C 733.85791,414.23164 734,424.20777 734,527.57247 v 113.12745 l -2.87123,3.90004 c -1.57917,2.14502 -4.27917,5.22173 -6,6.83713 C 723.40795,653.05249 722,655.00851 722,655.7838 722,657.66475 753.90953,691 755.71004,691 c 0.82681,0 4.10182,-5.67843 7.93025,-13.75 z m -478.29425,-3.93333 c 17.93719,-18.54378 17.16782,-16.79764 10.63217,-24.13048 -7.44453,-8.35258 -7.06655,-1.45011 -6.7576,-123.40219 0.3126,-123.39215 -0.39069,-112.40578 7.69697,-120.23695 5.75116,-5.56876 5.66532,-5.76109 -10.16758,-22.78093 -7.8375,-8.42506 -21.37771,-23.03949 -30.08936,-32.47653 -9.05513,-9.80911 -16.3844,-16.94909 -17.11189,-16.66992 -0.6999,0.26857 -8.75968,8.79604 -17.91064,18.94993 L 205,371.03122 v 28.37346 c 0,109.97925 18.52358,202.62281 55.18621,276.00752 6.32102,12.6523 7.66133,14.83867 8.80991,14.3711 0.38277,-0.15581 7.74024,-7.5658 16.34992,-16.46663 z M 533.19616,662.80249 C 543.81327,652.79385 566.5625,631.1354 583.75,614.67258 L 615,584.74019 v -60.252 -60.25201 L 595.75,446.8927 c -10.5875,-9.53892 -28.90624,-26.12956 -40.7083,-36.86809 -39.08906,-35.56658 -42.07611,-38.16498 -43.50401,-37.84359 -0.77943,0.17544 -15.05677,13.17115 -31.72742,28.87935 -16.67065,15.70821 -38.86027,36.35815 -49.31027,45.88876 -10.45,9.53061 -19.5625,18.02695 -20.25,18.88075 -0.96844,1.20271 -1.25,14.88702 -1.25,60.75256 v 59.20019 l 6.75,6.44675 C 480.75947,654.31827 509.68369,681 511.98141,681 c 1.10401,0 10.06215,-7.68409 21.21475,-18.19751 z M 350.03236,602.13165 383.5,584.26329 V 526.01605 467.76881 L 350,449.92855 c -18.425,-9.81214 -34.0625,-17.86012 -34.75,-17.8844 -0.99145,-0.035 -1.25,19.39897 -1.25,93.95585 0,75.79828 0.24831,94 1.28236,94 0.70529,0 16.34279,-8.04076 34.75,-17.86835 z m 359.7228,-75.92471 c 0.20603,-75.30814 0.007,-93.36085 -1.03196,-93.75966 -0.70791,-0.27166 -7.79774,3.03405 -15.75516,7.34602 -7.95742,4.31196 -23.13054,12.45367 -33.71804,18.09269 L 640,468.13874 v 57.86791 57.8679 l 12.75,6.9708 c 35.30011,19.2996 53.89497,29.00033 55.25,28.82331 1.31914,-0.17234 1.53076,-11.44112 1.75516,-93.46172 z M 417,426.84861 c 11.275,-10.52348 29.04682,-27.05698 39.49294,-36.74111 10.44611,-9.68412 24.73361,-23.18504 31.75,-30.00203 L 501,347.71093 V 310.85547 C 501,285.16246 500.67334,274 499.92145,274 c -1.20861,0 -29.55746,22.28793 -132.83358,104.43407 -32.27397,25.67082 -39.89721,32.1775 -38.86808,33.17522 2.5677,2.48934 64.53751,34.39509 66.77901,34.38182 0.82566,-0.005 10.7262,-8.61902 22.0012,-19.1425 z m 237.91669,6.44471 c 40.67617,-21.0248 42.06971,-21.76856 42.07663,-22.45722 0.004,-0.36514 -3.03082,-3.05808 -6.74332,-5.98431 -3.7125,-2.92624 -24.54158,-19.50248 -46.28683,-36.83611 -21.74526,-17.33362 -45.82026,-36.49511 -53.5,-42.58108 -7.67975,-6.08598 -25.09879,-19.9512 -38.70899,-30.81161 -13.6102,-10.8604 -25.1977,-19.46691 -25.75,-19.12557 -1.31872,0.81501 -1.36996,71.95059 -0.0536,74.41023 C 527.46791,352.74282 628.36132,446 629.91131,446 c 0.23214,0 11.48456,-5.71801 25.00538,-12.70668 z M 329.5687,377.36124 c 4.73031,-3.65132 8.83705,-7.25503 9.12608,-8.00823 0.55071,-1.43513 -62.02604,-66.55793 -64.57389,-67.2012 C 272.5652,301.75904 257,316.78232 257,318.67662 257,320.95464 317.5291,384 319.7162,384 c 0.68856,0 5.12218,-2.98744 9.8525,-6.63876 z M 734.5,352.83069 c 15.95,-16.46039 29.85227,-31.06848 30.89393,-32.46243 l 1.89394,-2.53444 -7.89394,-7.94927 c -4.34166,-4.3721 -8.56893,-7.82221 -9.39393,-7.66691 -2.07654,0.39089 -65.00963,65.2149 -64.9594,66.9112 0.0555,1.87507 17.73337,14.92225 19.24646,14.20489 0.66712,-0.31628 14.26294,-14.04265 30.21294,-30.50304 z m -368.85204,-4.89078 c 5.14362,-3.88304 9.35204,-7.4602 9.35204,-7.94924 0,-1.46987 -65.31543,-68.46649 -67.06306,-68.78924 -1.46169,-0.26994 -16.88099,11.28098 -18.45183,13.82266 -0.72369,1.17096 1.54515,3.66044 38.93503,42.72131 14.34392,14.98497 26.48394,27.24747 26.97782,27.25 0.49388,0.003 5.10638,-3.17244 10.25,-7.05549 z M 701.5895,320.68604 c 18.10077,-18.59768 33.04849,-34.64085 33.21714,-35.65149 0.34679,-2.07812 -15.86125,-15.42394 -18.0467,-14.85979 C 714.68807,270.70959 649,338.84186 649,340.456 c 0,1.69621 16.92636,14.73151 18.5895,14.31612 0.59922,-0.14967 15.89922,-15.4884 34,-34.08608 z M 220.26858,321 C 249.16436,291.0791 293.93705,246.44561 324.75,216.84343 334.7875,207.20035 343,198.83937 343,198.26348 343,197.09587 325.69561,181 324.44033,181 322.62021,181 173,328.62411 173,330.41994 c 0,1.44593 18.02159,19.75943 19.04679,19.3553 C 192.43082,349.62386 205.13062,336.675 220.26858,321 Z m 621.90256,20.04417 C 847.02701,336.11846 851,331.65519 851,331.1258 851,329.68242 701.28753,181.55397 699.43067,181.16014 c -1.51663,-0.32167 -17.6025,14.12033 -18.19976,16.33986 -0.148,0.55 19.84276,20.8 44.42392,45 24.58116,24.2 58.41786,58.2875 75.19268,75.75 16.77481,17.4625 30.94856,31.75 31.49722,31.75 0.54865,0 4.97054,-4.03012 9.82641,-8.95583 z M 433.5,296.42279 c 60.632,-48.43779 74.17015,-58.42571 79.18426,-58.41905 5.03509,0.007 23.14761,13.79159 98.17081,74.71496 8.99529,7.30471 16.87257,13.2813 17.50507,13.2813 1.81187,0 74.97281,-73.65225 74.27787,-74.77669 -0.34213,-0.55359 -6.58815,-2.89864 -13.88004,-5.21123 -51.5543,-16.3502 -119.87332,-50.5361 -168.4032,-84.26664 l -7.14523,-4.96627 -11.50747,7.56671 c -56.36882,37.06516 -108.10278,62.45222 -166.50236,81.70657 -7.86516,2.59314 -14.59528,5.00978 -14.95581,5.37031 -0.9228,0.92281 72.91454,74.57929 74.75103,74.56795 0.82779,-0.005 18.15507,-13.31068 38.50507,-29.56792 z m -199,-59.91175 c 5.5,-5.57103 11.07328,-11.32127 12.38506,-12.77831 l 2.38507,-2.64917 -40.81371,-41.04178 C 186.00888,157.4688 167.16588,139 166.58308,139 165.26481,139 135,169.1181 135,170.42998 c 0,0.52479 12.27038,13.35524 27.2675,28.5121 14.99713,15.15685 33.26121,33.76247 40.58686,41.34582 l 13.31935,13.78789 4.16314,-3.7178 C 222.62658,248.31319 229,242.08207 234.5,236.51104 Z M 817.64125,243.75 c 5.46698,-5.6375 15.53299,-16.1 22.36892,-23.25 6.83592,-7.15 20.46486,-21.20362 30.28652,-31.23026 9.82166,-10.02664 17.71036,-18.85091 17.53044,-19.60949 -0.5064,-2.13509 -28.35752,-30.66065 -29.93234,-30.65717 -1.2549,0.003 -80.93389,80.06546 -81.72413,82.11769 -0.25169,0.65361 30.46579,32.87923 31.3405,32.87923 0.10457,0 4.66311,-4.6125 10.13009,-10.25 z m -693.31977,-96 c 2.78979,-2.8875 9.56422,-9.87361 15.05428,-15.52468 l 9.98193,-10.27468 -3.90402,-3.99808 c -23.47689,-24.042522 -55.820808,5.49717 -32.8767,30.02628 5.777,6.17607 5.55208,6.18046 11.74451,-0.22884 z m 786.28706,-0.5 c 22.63454,-23.5009 -5.66151,-52.136833 -30.7566,-31.12604 -6.28957,5.26593 -6.76221,4.20369 9.48133,21.30893 15.65617,16.4867 15.09912,16.22966 21.27527,9.81711 z"
       id="path7"
       sodipodi:nodetypes="sssssssssssscsssssssscssssssssssssssssscssssssssssssssscssssssssssscssssssssssssssssssssssscssssscsssssssssssssssccssssscssssssscssssssssssssscsssssscccssssssscsssscccssssssssscccsssssscssssssscsssssssssssssssscsssssssssscssssssssssssssssssssssscssssscssscssscssssscsssssscssssscsssssss" />
    <path
       d="m 323.58254,665.80907 c -0.53173,0 -29.11785,27.99563 -63.525,62.2125 l -60.66279,60.3162 -19.82628,47.0463 c -9.8618,24.8325 -18.23801,45.97688 -18.61494,46.9875 -1.16622,3.1268 1.38957,2.42671 52.54716,-14.40058 l 49.36641,-16.23809 64.34532,-64.38428 64.34326,-64.38428 c 0,0 -27.97691,-33.64123 -67.97314,-57.15527 z"
       style="display:inline;fill:#b4c2c0;stroke-width:1.05"
       id="path339"
       sodipodi:nodetypes="scccsscccs" />
  </g>
</svg>
